<?xml version="1.0" encoding="utf-8"?>
<!-- Generator: Adobe Illustrator 17.0.0, SVG Export Plug-In . SVG Version: 6.00 Build 0)  -->
<!DOCTYPE svg PUBLIC "-//W3C//DTD SVG 1.1//EN" "http://www.w3.org/Graphics/SVG/1.1/DTD/svg11.dtd">
<svg version="1.1" id="Слой_2" xmlns="http://www.w3.org/2000/svg" xmlns:xlink="http://www.w3.org/1999/xlink" x="0px" y="0px"
	 width="7.865px" height="18.078px" viewBox="0 0 7.865 18.078" enable-background="new 0 0 7.865 18.078" xml:space="preserve">
<g>
	<defs>
		<path id="SVGID_1_" d="M-335.703-1677.961c12.78,0,23.204-2.172,23.204-4.837c0-2.665-10.424-4.839-23.204-4.839
			s-23.204,2.173-23.204,4.839C-358.908-1680.133-348.483-1677.961-335.703-1677.961"/>
	</defs>
	<clipPath id="SVGID_2_">
		<use xlink:href="#SVGID_1_"  overflow="visible"/>
	</clipPath>
	<g clip-path="url(#SVGID_2_)">
		<defs>
			<rect id="SVGID_3_" x="-510.045" y="-2493.961" width="1024" height="4999"/>
		</defs>
		<clipPath id="SVGID_4_">
			<use xlink:href="#SVGID_3_"  overflow="visible"/>
		</clipPath>
		<rect x="-363.908" y="-1692.637" clip-path="url(#SVGID_4_)" fill="#E2E1E0" width="56.409" height="19.676"/>
	</g>
</g>
<g>
	<defs>
		<path id="SVGID_5_" d="M-335.686-1682.878c1.219,0,2.199,0.26,2.189,0.58c-0.009,0.32-1.006,0.58-2.225,0.58
			c-1.22,0-2.2-0.26-2.19-0.58C-337.902-1682.618-336.905-1682.878-335.686-1682.878"/>
	</defs>
	<clipPath id="SVGID_6_">
		<use xlink:href="#SVGID_5_"  overflow="visible"/>
	</clipPath>
	<g clip-path="url(#SVGID_6_)">
		<defs>
			<rect id="SVGID_7_" x="-510.045" y="-2493.961" width="1024" height="4999"/>
		</defs>
		<clipPath id="SVGID_8_">
			<use xlink:href="#SVGID_7_"  overflow="visible"/>
		</clipPath>
		<rect x="-342.912" y="-1687.878" clip-path="url(#SVGID_8_)" fill="#888888" width="14.415" height="11.16"/>
	</g>
</g>
<g>
	<defs>
		<path id="SVGID_9_" d="M-336.618-1725.094c4.895-13.195,8.073-26.388,11.611-40.843c2.217,0.093,4.434,0.219,6.65,0.373
			c-1.908,9.254-4.27,18.165-7.151,27.147c-2.427,7.569-5.096,15.012-7.809,22.422
			C-334.43-1719.02-335.534-1722.051-336.618-1725.094"/>
	</defs>
	<clipPath id="SVGID_10_">
		<use xlink:href="#SVGID_9_"  overflow="visible"/>
	</clipPath>
	<g clip-path="url(#SVGID_10_)">
		<defs>
			<rect id="SVGID_11_" x="-510.045" y="-2493.961" width="1024" height="4999"/>
		</defs>
		<clipPath id="SVGID_12_">
			<use xlink:href="#SVGID_11_"  overflow="visible"/>
		</clipPath>
		<rect x="-341.618" y="-1770.936" clip-path="url(#SVGID_12_)" fill="#CCCCCC" width="28.261" height="59.943"/>
	</g>
</g>
<g>
	<defs>
		<polyline id="SVGID_13_" points="-368.045,-1777.811 -308.05,-1777.811 -308.05,-1677.961 -368.045,-1677.961 		"/>
	</defs>
	<clipPath id="SVGID_14_">
		<use xlink:href="#SVGID_13_"  overflow="visible"/>
	</clipPath>
	<g clip-path="url(#SVGID_14_)">
		<defs>
			<rect id="SVGID_15_" x="-510.045" y="-2493.961" width="1024" height="4999"/>
		</defs>
		<clipPath id="SVGID_16_">
			<use xlink:href="#SVGID_15_"  overflow="visible"/>
		</clipPath>
		<g clip-path="url(#SVGID_16_)" enable-background="new    ">
			<g>
				<defs>
					<rect id="SVGID_17_" x="-368.045" y="-1777.961" width="34" height="88"/>
				</defs>
				<clipPath id="SVGID_18_">
					<use xlink:href="#SVGID_17_"  overflow="visible"/>
				</clipPath>
				<g clip-path="url(#SVGID_18_)">
					<defs>
						<path id="SVGID_19_" d="M-335.893-1690.939c0.87-2.06-0.428-4.068,0.417-6.032c-10.151-27.974-18.202-47.069-23.089-79.427
							c8.625-0.855,15.947-1.323,23.154-1.401c-10.275-0.094-20.341,0.375-32.634,1.401c4.493,25.051,11.241,42.152,19.651,61.578
							C-345.178-1707.392-341.216-1699.623-335.893-1690.939"/>
					</defs>
					<clipPath id="SVGID_20_">
						<use xlink:href="#SVGID_19_"  overflow="visible"/>
					</clipPath>
					<g clip-path="url(#SVGID_20_)">
						<defs>
							<rect id="SVGID_21_" x="-368.045" y="-1777.961" width="60" height="100"/>
						</defs>
						<clipPath id="SVGID_22_">
							<use xlink:href="#SVGID_21_"  overflow="visible"/>
						</clipPath>
						<rect x="-373.045" y="-1782.81" clip-path="url(#SVGID_22_)" fill="#FFFFFF" width="42.633" height="96.871"/>
					</g>
				</g>
			</g>
		</g>
	</g>
</g>
<g>
	<defs>
		<polyline id="SVGID_23_" points="-368.045,-1777.811 -308.05,-1777.811 -308.05,-1677.961 -368.045,-1677.961 		"/>
	</defs>
	<clipPath id="SVGID_24_">
		<use xlink:href="#SVGID_23_"  overflow="visible"/>
	</clipPath>
	<g clip-path="url(#SVGID_24_)">
		<defs>
			<rect id="SVGID_25_" x="-510.045" y="-2493.961" width="1024" height="4999"/>
		</defs>
		<clipPath id="SVGID_26_">
			<use xlink:href="#SVGID_25_"  overflow="visible"/>
		</clipPath>
		<g clip-path="url(#SVGID_26_)" enable-background="new    ">
			<g>
				<defs>
					<rect id="SVGID_27_" x="-359.045" y="-1777.961" width="51" height="88"/>
				</defs>
				<clipPath id="SVGID_28_">
					<use xlink:href="#SVGID_27_"  overflow="visible"/>
				</clipPath>
				<g clip-path="url(#SVGID_28_)">
					<defs>
						<path id="SVGID_29_" d="M-335.894-1690.939c3.203-9.011,8.792-17.031,11.57-24.702c6.919-19.099,12.457-36.04,16.274-60.757
							c-18.929-1.89-31.585-1.878-50.516,0c3.701,24.502,9.217,41.399,16.083,60.306
							C-339.645-1708.278-339.162-1700.119-335.894-1690.939 M-333.318-1715.994c-2.734-7.437-5.424-14.906-7.865-22.505
							c-2.877-8.954-5.227-17.831-7.111-27.059c4.992-0.347,9.986-0.557,14.99-0.557c4.991,0,9.97,0.206,14.947,0.552
							c-1.908,9.254-4.27,18.166-7.151,27.147C-327.936-1730.847-330.604-1723.404-333.318-1715.994"/>
					</defs>
					<clipPath id="SVGID_30_">
						<use xlink:href="#SVGID_29_"  overflow="visible"/>
					</clipPath>
					<g clip-path="url(#SVGID_30_)">
						<defs>
							<rect id="SVGID_31_" x="-368.045" y="-1777.961" width="60" height="100"/>
						</defs>
						<clipPath id="SVGID_32_">
							<use xlink:href="#SVGID_31_"  overflow="visible"/>
						</clipPath>
						<rect x="-363.566" y="-1782.81" clip-path="url(#SVGID_32_)" fill="#EDEDED" width="60.516" height="96.871"/>
					</g>
				</g>
			</g>
		</g>
	</g>
</g>
<g>
	<defs>
		<rect id="SVGID_33_" x="-368.045" y="-1777.811" width="59.995" height="99.85"/>
	</defs>
	<clipPath id="SVGID_34_">
		<use xlink:href="#SVGID_33_"  overflow="visible"/>
	</clipPath>
	<g clip-path="url(#SVGID_34_)">
		<defs>
			<rect id="SVGID_35_" x="-510.045" y="-2493.961" width="1024" height="4999"/>
		</defs>
		<clipPath id="SVGID_36_">
			<use xlink:href="#SVGID_35_"  overflow="visible"/>
		</clipPath>
		<g clip-path="url(#SVGID_36_)" enable-background="new    ">
			<g>
				<defs>
					<rect id="SVGID_37_" x="-336.045" y="-1777.961" width="28" height="87"/>
				</defs>
				<clipPath id="SVGID_38_">
					<use xlink:href="#SVGID_37_"  overflow="visible"/>
				</clipPath>
				<g clip-path="url(#SVGID_38_)">
					<defs>
						<path id="SVGID_39_" d="M-335.686-1691.577c4.335-8.314,8.551-16.306,11.317-23.938c6.94-19.15,12.495-36.113,16.32-60.884
							c-9.465-0.945-17.361-1.414-25.258-1.413v11.696h0.003c4.99,0,9.97,0.205,14.947,0.552c-1.908,9.254-4.27,18.165-7.151,27.147
							c-2.424,7.559-5.09,14.992-7.799,22.393L-335.686-1691.577z"/>
					</defs>
					<clipPath id="SVGID_40_">
						<use xlink:href="#SVGID_39_"  overflow="visible"/>
					</clipPath>
					<g clip-path="url(#SVGID_40_)">
						<defs>
							<rect id="SVGID_41_" x="-368.045" y="-1777.961" width="60" height="100"/>
						</defs>
						<clipPath id="SVGID_42_">
							<use xlink:href="#SVGID_41_"  overflow="visible"/>
						</clipPath>
						<rect x="-340.686" y="-1782.811" clip-path="url(#SVGID_42_)" fill="#E5E4E1" width="37.636" height="96.234"/>
					</g>
				</g>
			</g>
		</g>
	</g>
</g>
<polygon fill-rule="evenodd" clip-rule="evenodd" fill="#8C8C8C" points="0.4,1.828 1.657,1.828 1.657,17.669 1.657,17.871 
	1.651,17.876 1.651,17.877 1.644,17.882 1.642,17.884 1.637,17.888 1.632,17.892 1.63,17.894 1.623,17.899 1.607,17.91 1.6,17.915 
	1.599,17.915 1.592,17.921 1.588,17.923 1.583,17.926 1.576,17.931 1.575,17.931 1.566,17.936 1.563,17.938 1.558,17.941 
	1.551,17.945 1.549,17.946 1.54,17.951 1.538,17.952 1.53,17.955 1.524,17.959 1.521,17.96 1.511,17.965 1.51,17.965 1.502,17.969 
	1.497,17.972 1.492,17.974 1.482,17.978 1.482,17.978 1.471,17.982 1.467,17.984 1.461,17.987 1.452,17.99 1.45,17.991 1.44,17.995 
	1.437,17.996 1.429,17.999 1.422,18.002 1.418,18.003 1.407,18.007 1.406,18.007 1.396,18.01 1.389,18.012 1.384,18.014 
	1.373,18.017 1.373,18.017 1.361,18.021 1.356,18.022 1.35,18.024 1.339,18.027 1.338,18.028 1.326,18.031 1.322,18.032 
	1.314,18.034 1.304,18.036 1.301,18.037 1.289,18.04 1.287,18.04 1.276,18.043 1.269,18.044 1.264,18.045 1.251,18.048 1.25,18.048 
	1.238,18.05 1.232,18.052 1.225,18.053 1.213,18.055 1.212,18.055 1.199,18.057 1.194,18.058 1.186,18.06 1.175,18.061 
	1.172,18.061 1.159,18.063 1.156,18.064 1.145,18.065 1.136,18.066 1.132,18.067 1.118,18.068 1.117,18.068 1.104,18.07 
	1.097,18.071 1.09,18.071 1.077,18.072 1.076,18.072 1.062,18.074 1.057,18.074 1.048,18.075 1.036,18.075 1.034,18.075 
	1.019,18.076 1.015,18.076 0.995,18.077 0.99,18.077 0.976,18.078 0.974,18.078 0.961,18.078 0.953,18.078 0.947,18.078 
	0.932,18.078 0.922,18.078 0.913,18.078 0.911,18.078 0.903,18.078 0.894,18.078 0.89,18.078 0.885,18.078 0.875,18.077 
	0.869,18.077 0.866,18.077 0.857,18.077 0.848,18.076 0.847,18.076 0.838,18.076 0.829,18.075 0.828,18.075 0.82,18.075 
	0.81,18.074 0.807,18.074 0.801,18.073 0.792,18.073 0.787,18.072 0.783,18.072 0.774,18.071 0.767,18.071 0.765,18.07 0.756,18.07 
	0.747,18.068 0.747,18.068 0.739,18.067 0.73,18.066 0.721,18.065 0.712,18.064 0.708,18.064 0.703,18.063 0.695,18.062 
	0.688,18.061 0.686,18.061 0.678,18.059 0.669,18.058 0.669,18.058 0.66,18.057 0.652,18.055 0.651,18.055 0.643,18.054 
	0.635,18.052 0.632,18.052 0.627,18.051 0.618,18.049 0.613,18.048 0.61,18.047 0.602,18.046 0.594,18.044 0.586,18.042 
	0.578,18.04 0.57,18.038 0.562,18.037 0.559,18.036 0.554,18.035 0.546,18.033 0.542,18.032 0.538,18.031 0.53,18.029 0.523,18.027 
	0.515,18.024 0.507,18.022 0.507,18.022 0.5,18.02 0.492,18.018 0.485,18.016 0.477,18.013 0.448,18.004 0.442,18.002 0.441,18.001 
	0.434,17.999 0.427,17.996 0.42,17.994 0.414,17.991 0.407,17.988 0.4,17.986 0.4,17.66 "/>
<path fill-rule="evenodd" clip-rule="evenodd" fill="#1A0E08" d="M0.4,1.828h1.257v0.111C1.483,2.074,1.265,2.154,1.029,2.154
	c-0.237,0-0.455-0.08-0.629-0.214V1.828z"/>
<polygon fill-rule="evenodd" clip-rule="evenodd" fill="#9C9C9C" points="1.029,1.828 0.4,1.828 0.4,17.669 0.4,17.871 
	0.406,17.876 0.406,17.876 0.412,17.881 0.415,17.884 0.418,17.886 0.424,17.891 0.425,17.892 0.431,17.896 0.437,17.901 
	0.444,17.906 0.451,17.911 0.458,17.915 0.458,17.916 0.465,17.92 0.469,17.923 0.473,17.925 0.48,17.93 0.481,17.931 0.488,17.934 
	0.494,17.938 0.496,17.939 0.503,17.943 0.506,17.945 0.511,17.947 0.52,17.952 0.52,17.952 0.528,17.956 0.533,17.959 0.536,17.96 
	0.545,17.964 0.547,17.965 0.554,17.968 0.561,17.972 0.562,17.972 0.572,17.976 0.575,17.978 0.581,17.98 0.59,17.984 0.59,17.984 
	0.599,17.988 0.605,17.99 0.609,17.992 0.618,17.995 0.62,17.996 0.628,17.999 0.636,18.002 0.638,18.002 0.648,18.006 
	0.652,18.007 0.658,18.009 0.668,18.012 0.668,18.012 0.678,18.016 0.684,18.017 0.688,18.019 0.699,18.022 0.701,18.022 
	0.709,18.025 0.718,18.027 0.72,18.028 0.731,18.031 0.735,18.032 0.742,18.033 0.753,18.036 0.753,18.036 0.764,18.039 0.77,18.04 
	0.775,18.041 0.786,18.044 0.789,18.044 0.798,18.046 0.807,18.048 0.809,18.048 0.821,18.051 0.825,18.052 0.832,18.053 
	0.844,18.055 0.856,18.057 0.863,18.058 0.868,18.059 0.879,18.061 0.882,18.061 0.892,18.062 0.901,18.064 0.904,18.064 
	0.916,18.065 0.928,18.067 0.94,18.068 0.94,18.068 0.953,18.07 0.965,18.071 0.978,18.072 0.98,18.072 0.99,18.073 1.001,18.074 
	1.003,18.074 1.016,18.075 1.021,18.075 1.029,18.076 1.029,17.665 "/>
<path fill-rule="evenodd" clip-rule="evenodd" fill="#4D392F" d="M1.029,1.828H0.4v0.111c0.174,0.134,0.392,0.214,0.628,0.214
	L1.029,1.828z"/>
<circle fill-rule="evenodd" clip-rule="evenodd" fill="#8C8C8C" cx="1.029" cy="1.029" r="1.028"/>
<path fill-rule="evenodd" clip-rule="evenodd" fill="#9C9C9C" d="M0.513,1.918C0.022,1.634-0.146,1.005,0.139,0.513
	c0.285-0.491,0.914-0.659,1.405-0.374L0.513,1.918z"/>
<path fill-rule="evenodd" clip-rule="evenodd" fill="#606060" d="M2.057,1.029c0,0.568-0.46,1.028-1.028,1.028
	C0.461,2.057,0,1.597,0,1.029c0,0.733,0.937,0.8,1.024,0.8C1.369,1.828,2.057,1.694,2.057,1.029z"/>
<path fill-rule="evenodd" clip-rule="evenodd" fill="#8F8F8F" d="M0,1.029c0,0.568,0.46,1.028,1.028,1.028V1.828
	C0.683,1.827,0,1.618,0,1.029z"/>
<path fill-rule="evenodd" clip-rule="evenodd" fill="#F8F8F8" d="M0.4,2.057c0.213,0.098,0.419,0.159,0.629,0.159
	c0.202,0,0.419-0.03,0.628-0.159l6.208,3l-6.208,3C1.463,8.152,1.238,8.216,1.029,8.216c-0.21,0-0.449-0.08-0.628-0.159
	C0.4,6.057,0.4,4.057,0.4,2.057z"/>
<path fill-rule="evenodd" clip-rule="evenodd" fill="#D6D6D6" d="M1.029,2.216L1.029,2.216c0.202,0,0.419-0.03,0.628-0.159v6h0
	C1.463,8.152,1.238,8.216,1.029,8.216V2.216z"/>
<polygon fill-rule="evenodd" clip-rule="evenodd" fill="#F3F3F3" points="3.288,7.269 7.865,5.057 4.981,3.663 "/>
</svg>
