<?xml version="1.0" encoding="utf-8"?>
<!-- Generator: Adobe Illustrator 17.0.0, SVG Export Plug-In . SVG Version: 6.00 Build 0)  -->
<!DOCTYPE svg PUBLIC "-//W3C//DTD SVG 1.1//EN" "http://www.w3.org/Graphics/SVG/1.1/DTD/svg11.dtd">
<svg version="1.1" id="Слой_2" xmlns="http://www.w3.org/2000/svg" xmlns:xlink="http://www.w3.org/1999/xlink" x="0px" y="0px"
	 width="19.252px" height="18.533px" viewBox="0 0 19.252 18.533" enable-background="new 0 0 19.252 18.533" xml:space="preserve">
<g>
	<defs>
		<path id="SVGID_1_" d="M-328.297-1677.734c12.78,0,23.204-2.172,23.204-4.838s-10.424-4.839-23.204-4.839
			s-23.204,2.173-23.204,4.839S-341.077-1677.734-328.297-1677.734"/>
	</defs>
	<clipPath id="SVGID_2_">
		<use xlink:href="#SVGID_1_"  overflow="visible"/>
	</clipPath>
	<g clip-path="url(#SVGID_2_)">
		<defs>
			<rect id="SVGID_3_" x="-502.639" y="-2493.734" width="1024" height="4999"/>
		</defs>
		<clipPath id="SVGID_4_">
			<use xlink:href="#SVGID_3_"  overflow="visible"/>
		</clipPath>
		<rect x="-356.502" y="-1692.41" clip-path="url(#SVGID_4_)" fill="#E2E1E0" width="56.409" height="19.676"/>
	</g>
</g>
<g>
	<defs>
		<path id="SVGID_5_" d="M-328.28-1682.651c1.219,0,2.2,0.26,2.19,0.58c-0.009,0.32-1.006,0.581-2.225,0.581
			c-1.219,0-2.199-0.26-2.19-0.581C-330.496-1682.391-329.499-1682.651-328.28-1682.651"/>
	</defs>
	<clipPath id="SVGID_6_">
		<use xlink:href="#SVGID_5_"  overflow="visible"/>
	</clipPath>
	<g clip-path="url(#SVGID_6_)">
		<defs>
			<rect id="SVGID_7_" x="-502.639" y="-2493.734" width="1024" height="4999"/>
		</defs>
		<clipPath id="SVGID_8_">
			<use xlink:href="#SVGID_7_"  overflow="visible"/>
		</clipPath>
		<rect x="-335.505" y="-1687.651" clip-path="url(#SVGID_8_)" fill="#888888" width="14.415" height="11.16"/>
	</g>
</g>
<g>
	<defs>
		<path id="SVGID_9_" d="M-329.212-1724.866c4.895-13.195,8.073-26.387,11.612-40.843c2.217,0.093,4.434,0.219,6.65,0.373
			c-1.908,9.255-4.27,18.166-7.151,27.147c-2.427,7.569-5.096,15.012-7.81,22.422
			C-327.024-1718.792-328.128-1721.824-329.212-1724.866"/>
	</defs>
	<clipPath id="SVGID_10_">
		<use xlink:href="#SVGID_9_"  overflow="visible"/>
	</clipPath>
	<g clip-path="url(#SVGID_10_)">
		<defs>
			<rect id="SVGID_11_" x="-502.639" y="-2493.734" width="1024" height="4999"/>
		</defs>
		<clipPath id="SVGID_12_">
			<use xlink:href="#SVGID_11_"  overflow="visible"/>
		</clipPath>
		<rect x="-334.212" y="-1770.709" clip-path="url(#SVGID_12_)" fill="#CCCCCC" width="28.261" height="59.943"/>
	</g>
</g>
<g>
	<defs>
		<polyline id="SVGID_13_" points="-360.639,-1777.584 -300.644,-1777.584 -300.644,-1677.734 -360.639,-1677.734 		"/>
	</defs>
	<clipPath id="SVGID_14_">
		<use xlink:href="#SVGID_13_"  overflow="visible"/>
	</clipPath>
	<g clip-path="url(#SVGID_14_)">
		<defs>
			<rect id="SVGID_15_" x="-502.639" y="-2493.734" width="1024" height="4999"/>
		</defs>
		<clipPath id="SVGID_16_">
			<use xlink:href="#SVGID_15_"  overflow="visible"/>
		</clipPath>
		<g clip-path="url(#SVGID_16_)" enable-background="new    ">
			<g>
				<defs>
					<rect id="SVGID_17_" x="-360.639" y="-1777.734" width="34" height="88"/>
				</defs>
				<clipPath id="SVGID_18_">
					<use xlink:href="#SVGID_17_"  overflow="visible"/>
				</clipPath>
				<g clip-path="url(#SVGID_18_)">
					<defs>
						<path id="SVGID_19_" d="M-328.487-1690.712c0.87-2.06-0.428-4.068,0.417-6.032c-10.15-27.974-18.201-47.069-23.089-79.426
							c8.625-0.855,15.947-1.324,23.154-1.401c-10.274-0.094-20.34,0.374-32.633,1.401c4.493,25.05,11.24,42.152,19.65,61.577
							C-337.772-1707.164-333.809-1699.396-328.487-1690.712"/>
					</defs>
					<clipPath id="SVGID_20_">
						<use xlink:href="#SVGID_19_"  overflow="visible"/>
					</clipPath>
					<g clip-path="url(#SVGID_20_)">
						<defs>
							<rect id="SVGID_21_" x="-360.639" y="-1777.734" width="60" height="100"/>
						</defs>
						<clipPath id="SVGID_22_">
							<use xlink:href="#SVGID_21_"  overflow="visible"/>
						</clipPath>
						<rect x="-365.639" y="-1782.583" clip-path="url(#SVGID_22_)" fill="#FFFFFF" width="42.633" height="96.871"/>
					</g>
				</g>
			</g>
		</g>
	</g>
</g>
<g>
	<defs>
		<polyline id="SVGID_23_" points="-360.639,-1777.584 -300.644,-1777.584 -300.644,-1677.734 -360.639,-1677.734 		"/>
	</defs>
	<clipPath id="SVGID_24_">
		<use xlink:href="#SVGID_23_"  overflow="visible"/>
	</clipPath>
	<g clip-path="url(#SVGID_24_)">
		<defs>
			<rect id="SVGID_25_" x="-502.639" y="-2493.734" width="1024" height="4999"/>
		</defs>
		<clipPath id="SVGID_26_">
			<use xlink:href="#SVGID_25_"  overflow="visible"/>
		</clipPath>
		<g clip-path="url(#SVGID_26_)" enable-background="new    ">
			<g>
				<defs>
					<rect id="SVGID_27_" x="-351.639" y="-1777.734" width="51" height="88"/>
				</defs>
				<clipPath id="SVGID_28_">
					<use xlink:href="#SVGID_27_"  overflow="visible"/>
				</clipPath>
				<g clip-path="url(#SVGID_28_)">
					<defs>
						<path id="SVGID_29_" d="M-328.487-1690.712c3.203-9.011,8.792-17.031,11.57-24.702c6.919-19.099,12.457-36.04,16.274-60.757
							c-18.93-1.89-31.585-1.878-50.516,0c3.701,24.502,9.217,41.4,16.083,60.306
							C-332.238-1708.05-331.755-1699.892-328.487-1690.712 M-325.911-1715.766c-2.734-7.437-5.424-14.906-7.865-22.505
							c-2.877-8.954-5.227-17.832-7.112-27.059c4.992-0.347,9.986-0.556,14.99-0.557c4.99,0,9.969,0.206,14.947,0.552
							c-1.908,9.254-4.27,18.166-7.151,27.147C-320.529-1730.62-323.198-1723.177-325.911-1715.766"/>
					</defs>
					<clipPath id="SVGID_30_">
						<use xlink:href="#SVGID_29_"  overflow="visible"/>
					</clipPath>
					<g clip-path="url(#SVGID_30_)">
						<defs>
							<rect id="SVGID_31_" x="-360.639" y="-1777.734" width="60" height="100"/>
						</defs>
						<clipPath id="SVGID_32_">
							<use xlink:href="#SVGID_31_"  overflow="visible"/>
						</clipPath>
						<rect x="-356.159" y="-1782.583" clip-path="url(#SVGID_32_)" fill="#EDEDED" width="60.516" height="96.871"/>
					</g>
				</g>
			</g>
		</g>
	</g>
</g>
<g>
	<defs>
		<rect id="SVGID_33_" x="-360.639" y="-1777.584" width="59.995" height="99.85"/>
	</defs>
	<clipPath id="SVGID_34_">
		<use xlink:href="#SVGID_33_"  overflow="visible"/>
	</clipPath>
	<g clip-path="url(#SVGID_34_)">
		<defs>
			<rect id="SVGID_35_" x="-502.639" y="-2493.734" width="1024" height="4999"/>
		</defs>
		<clipPath id="SVGID_36_">
			<use xlink:href="#SVGID_35_"  overflow="visible"/>
		</clipPath>
		<g clip-path="url(#SVGID_36_)" enable-background="new    ">
			<g>
				<defs>
					<rect id="SVGID_37_" x="-328.639" y="-1777.734" width="28" height="87"/>
				</defs>
				<clipPath id="SVGID_38_">
					<use xlink:href="#SVGID_37_"  overflow="visible"/>
				</clipPath>
				<g clip-path="url(#SVGID_38_)">
					<defs>
						<path id="SVGID_39_" d="M-328.28-1691.349c4.335-8.314,8.551-16.305,11.317-23.938c6.939-19.149,12.495-36.112,16.319-60.883
							c-9.464-0.945-17.361-1.415-25.258-1.413v11.696h0.004c4.99,0,9.969,0.205,14.947,0.552
							c-1.908,9.254-4.27,18.166-7.151,27.147c-2.424,7.559-5.09,14.993-7.799,22.393L-328.28-1691.349z"/>
					</defs>
					<clipPath id="SVGID_40_">
						<use xlink:href="#SVGID_39_"  overflow="visible"/>
					</clipPath>
					<g clip-path="url(#SVGID_40_)">
						<defs>
							<rect id="SVGID_41_" x="-360.639" y="-1777.734" width="60" height="100"/>
						</defs>
						<clipPath id="SVGID_42_">
							<use xlink:href="#SVGID_41_"  overflow="visible"/>
						</clipPath>
						<rect x="-333.28" y="-1782.583" clip-path="url(#SVGID_42_)" fill="#E5E4E1" width="37.636" height="96.234"/>
					</g>
				</g>
			</g>
		</g>
	</g>
</g>
<circle fill="#FFFFFF" stroke="#272425" stroke-width="0.5006" stroke-miterlimit="10" cx="9.267" cy="9.266" r="9.016"/>
<path fill="#B3B3B3" stroke="#272425" stroke-width="0.5006" stroke-miterlimit="10" d="M19.002,9.753
	c0,0.701-0.568,1.269-1.269,1.269h-2.788c-0.701,0-1.269-0.568-1.269-1.269V9.067c0-0.701,0.568-1.269,1.269-1.269h2.788
	c0.701,0,1.269,0.568,1.269,1.269V9.753z"/>
<circle fill="#D6D6D6" stroke="#272425" stroke-width="0.5006" stroke-miterlimit="10" cx="9.266" cy="9.266" r="6.41"/>
<circle fill="#523319" stroke="#272425" stroke-width="0.5006" stroke-miterlimit="10" cx="9.266" cy="9.266" r="4.253"/>
<path fill="none" stroke="#FFFFFF" stroke-width="0.5006" stroke-linecap="round" stroke-linejoin="round" stroke-miterlimit="10" d="
	M7.617,11.718c-0.787-0.531-1.305-1.431-1.305-2.452c0-1.02,0.517-1.919,1.303-2.45"/>
</svg>
